<svg width="218.531250" height="217.546875" viewBox="0 0 218.531 217.547" fill="none" xmlns="http://www.w3.org/2000/svg" xmlns:xlink="http://www.w3.org/1999/xlink">
	<desc>
			Created with Pixso.
	</desc>
	<defs>
		<clipPath id="clip5_77">
			<rect id="svg" rx="-0.500000" width="138.968750" height="120.437500" transform="translate(0.515625 86.328125)" fill="white" fill-opacity="0"/>
		</clipPath>
		<clipPath id="clip5_80">
			<rect id="svg.qodef-svg--arrow-pointer-clients" rx="-0.500000" width="80.546875" height="80.546875" transform="translate(137.484375 0.500000)" fill="white" fill-opacity="0"/>
		</clipPath>
	</defs>
	<g clip-path="url(#clip5_77)">
		<path id="Vector" d="M0.03 194.01C0.04 194.06 0.06 194.11 0.08 194.16C0.09 194.19 0.1 194.22 0.11 194.25L7.39 206.87L7.42 206.9C7.44 206.93 7.46 206.96 7.49 206.99C7.53 207.03 7.57 207.06 7.61 207.1C7.64 207.12 7.65 207.15 7.68 207.16C7.69 207.17 7.7 207.17 7.72 207.17C7.83 207.23 7.95 207.26 8.07 207.26L131.9 207.26C132.02 207.26 132.14 207.23 132.25 207.17C132.28 207.15 132.3 207.13 132.33 207.11C132.41 207.06 132.48 206.99 132.53 206.91C132.54 206.89 132.56 206.88 132.58 206.86L139.87 194.24C139.88 194.23 139.88 194.21 139.89 194.2C139.91 194.17 139.92 194.14 139.93 194.1C139.94 194.07 139.95 194.03 139.96 194C139.97 193.97 139.97 193.94 139.97 193.9C139.97 193.88 139.98 193.87 139.98 193.85C139.98 193.83 139.97 193.82 139.97 193.8C139.97 193.78 139.96 193.73 139.96 193.7C139.96 193.67 139.94 193.63 139.93 193.6C139.92 193.57 139.91 193.54 139.89 193.5C139.88 193.49 139.88 193.47 139.87 193.46L77.96 86.21C77.94 86.19 77.92 86.16 77.9 86.14C77.87 86.1 77.83 86.06 77.79 86.02C77.71 85.97 77.63 85.92 77.54 85.87C77.49 85.86 77.43 85.85 77.38 85.84C77.35 85.84 77.32 85.82 77.28 85.82L62.71 85.82C62.69 85.82 62.68 85.83 62.66 85.83C62.64 85.83 62.59 85.84 62.56 85.84L62.45 85.87C62.42 85.88 62.38 85.9 62.35 85.91C62.34 85.92 62.33 85.93 62.31 85.92C62.3 85.94 62.29 85.95 62.27 85.95C62.24 85.97 62.22 85.99 62.19 86.01C62.16 86.04 62.14 86.06 62.11 86.09C62.09 86.12 62.07 86.14 62.05 86.17C62.04 86.19 62.03 86.2 62.02 86.21L0.1 193.47C0.09 193.5 0.08 193.53 0.07 193.56C0.05 193.61 0.03 193.66 0.02 193.71C0.01 193.76 0.01 193.81 0.01 193.86C0.02 193.91 0.02 193.96 0.03 194.01ZM76.83 87.39L137.84 193.07L31.29 193.07L37.67 182.04L117.36 182.04C117.48 182.03 117.6 182 117.71 181.94C117.72 181.93 117.74 181.94 117.75 181.93C117.77 181.91 117.8 181.89 117.82 181.87C117.86 181.83 117.9 181.79 117.94 181.76C117.97 181.72 117.99 181.68 118.02 181.64C118.05 181.6 118.07 181.55 118.08 181.51C118.1 181.45 118.11 181.4 118.11 181.35C118.11 181.32 118.13 181.29 118.13 181.25C118.13 181.23 118.12 181.22 118.12 181.2C118.11 181.14 118.1 181.09 118.09 181.05C118.07 180.99 118.06 180.94 118.04 180.9C118.03 180.89 118.03 180.87 118.02 180.86L64.06 87.39L76.83 87.39ZM131.46 205.69L9.44 205.69L62.71 113.41L69.09 124.45L29.24 193.46C29.23 193.47 29.23 193.49 29.23 193.5C29.21 193.55 29.19 193.6 29.18 193.65C29.17 193.7 29.16 193.75 29.15 193.8C29.15 193.82 29.14 193.83 29.14 193.85C29.14 193.87 29.16 193.91 29.16 193.95C29.17 194.01 29.18 194.06 29.19 194.11C29.21 194.16 29.23 194.2 29.25 194.24C29.28 194.28 29.3 194.32 29.33 194.36C29.37 194.4 29.41 194.43 29.45 194.47C29.48 194.49 29.49 194.52 29.52 194.53C29.53 194.54 29.55 194.53 29.56 194.54C29.67 194.6 29.79 194.64 29.91 194.64L137.82 194.64L131.46 205.69ZM101.42 180.47L38.57 180.47L70 126.03L101.42 180.47ZM62.71 88.18L115.99 180.47L103.24 180.47L63.4 111.45C63.39 111.44 63.38 111.42 63.37 111.41C63.34 111.37 63.3 111.33 63.27 111.29C63.24 111.25 63.2 111.22 63.15 111.19C63.14 111.18 63.13 111.17 63.11 111.16C63.08 111.14 63.05 111.13 63.02 111.13C62.97 111.11 62.92 111.09 62.87 111.08C62.77 111.07 62.67 111.07 62.57 111.08C62.52 111.09 62.47 111.11 62.42 111.13C62.39 111.13 62.36 111.14 62.33 111.16C62.32 111.17 62.31 111.18 62.29 111.19C62.25 111.22 62.21 111.26 62.17 111.29C62.13 111.32 62.1 111.36 62.07 111.41C62.06 111.42 62.05 111.43 62.04 111.45L8.09 204.91L1.71 193.87L62.71 88.18Z" fill="#FFFFFF" fill-opacity="1.000000" fill-rule="nonzero"/>
	</g>
	<g clip-path="url(#clip5_80)">
		<path id="Vector" d="M217.32 64.59L165.57 64.59L217.47 12.69L205.84 1.05L153.94 52.95L153.94 1.2L137.48 17.66L137.48 81.04L200.87 81.04L217.32 64.59Z" stroke="#707070" stroke-opacity="1.000000" stroke-width="0.999901"/>
	</g>
</svg>
