<svg width="200.000000" height="200.000000" viewBox="0 0 200 200" fill="none" xmlns="http://www.w3.org/2000/svg" xmlns:xlink="http://www.w3.org/1999/xlink">
	<desc>
			Created with Pixso.
	</desc>
	<defs>
		<clipPath id="clip5_122">
			<rect id="svg.qodef-play-btn" rx="-0.500000" width="199.000000" height="199.000000" transform="translate(0.500000 0.500000)" fill="white" fill-opacity="0"/>
		</clipPath>
	</defs>
	<g clip-path="url(#clip5_122)">
		<path id="PLAY" d="M84.09 102.49L84.09 106L82.01 106L82.01 96.04L85.9 96.04Q87.08 96.04 87.92 96.47Q88.57 96.8 88.99 97.32Q89.11 97.47 89.21 97.64Q89.28 97.77 89.35 97.91Q89.65 98.55 89.65 99.33Q89.65 100.23 89.26 100.91Q89.24 100.96 89.21 101.01Q89.11 101.15 89 101.29Q88.59 101.8 87.92 102.1Q87.08 102.49 85.9 102.49L84.09 102.49ZM84.09 100.82L85.9 100.82Q86.49 100.82 86.85 100.63Q87.13 100.48 87.29 100.26Q87.35 100.19 87.39 100.11Q87.56 99.77 87.56 99.34Q87.56 99.05 87.48 98.79Q87.44 98.67 87.39 98.55Q87.33 98.41 87.24 98.3Q87.09 98.09 86.85 97.95Q86.49 97.72 85.9 97.72L84.09 97.72L84.09 100.82ZM92.47 106L97.46 106L97.46 104.33L93.12 104.33L93.12 96.04L91.04 96.04L91.04 106L92.47 106ZM97.95 106L100.15 106L100.83 103.95L104.42 103.95L105.1 106L107.29 106L103.57 96.04L101.66 96.04L97.95 106ZM102.62 98.57L101.38 102.28L103.86 102.28L102.62 98.57ZM112.36 96.04L110.3 100.51L108.25 96.04L105.99 96.04L109.26 102.39L109.26 106L111.35 106L111.35 102.39L114.62 96.04L112.36 96.04Z" fill="#FFFFFF" fill-opacity="1.000000" fill-rule="evenodd"/>
		<path id="Vector" d="M100 199.5C45.04 199.5 0.5 154.95 0.5 100C0.5 45.04 45.04 0.5 100 0.5C154.95 0.5 199.5 45.04 199.5 100C199.5 154.95 154.95 199.5 100 199.5Z" stroke="#FFFFFF" stroke-opacity="1.000000" stroke-width="1.000000"/>
		<path id="Vector" d="M125.75 110.33L144.33 91.76" stroke="#FFFFFF" stroke-opacity="1.000000" stroke-width="1.000000"/>
		<path id="Vector" d="M131.13 91.96L144.26 91.96L144.26 105.09" stroke="#FFFFFF" stroke-opacity="1.000000" stroke-width="1.000000"/>
	</g>
</svg>
